<svg width="24" height="24" viewBox="0 0 24 24" fill="none" xmlns="http://www.w3.org/2000/svg">
<path d="M3.00021 13L18.5862 13L13.2932 18.293C13.1987 18.3855 13.1234 18.4958 13.0718 18.6176C13.0201 18.7393 12.9932 18.8701 12.9924 19.0024C12.9917 19.1347 13.0172 19.2658 13.0675 19.3881C13.1178 19.5104 13.1918 19.6216 13.2854 19.7151C13.3789 19.8086 13.4901 19.8826 13.6124 19.9329C13.7347 19.9832 13.8658 20.0087 13.9981 20.0079C14.1304 20.0072 14.2612 19.9802 14.3829 19.9285C14.5047 19.8769 14.615 19.8016 14.7075 19.707L21.7075 12.707C21.8949 12.5195 22.0002 12.2652 22.0002 12C22.0002 11.7348 21.8949 11.4805 21.7075 11.293L14.7075 4.293C14.6147 4.19996 14.5045 4.12618 14.3831 4.07589C14.2617 4.02561 14.1316 3.99982 14.0002 4C13.8025 4.00004 13.6092 4.05871 13.4448 4.1686C13.2803 4.27848 13.1522 4.43465 13.0765 4.61735C13.0009 4.80005 12.9811 5.00108 13.0196 5.19503C13.0582 5.38899 13.1534 5.56715 13.2932 5.707L18.5862 11L3.00021 11C2.73499 11 2.48064 11.1054 2.2931 11.2929C2.10557 11.4804 2.00021 11.7348 2.00021 12C2.00021 12.2652 2.10557 12.5196 2.2931 12.7071C2.48064 12.8946 2.73499 13 3.00021 13Z" fill="white"/>
</svg>
