<svg width="169" height="54" viewBox="0 0 169 54" fill="none" xmlns="http://www.w3.org/2000/svg">
<path d="M20.9441 26.917L1 19.1697V60H171V4.72202L168.626 4.09386L155.804 16.8664L150.581 15.6101L134.436 27.5451L132.536 28.5921L116.154 14.5632L111.168 16.8664L102.145 4.09386H100.483L90.0363 14.5632H88.8492L81.7263 22.5199L73.4162 31.9422L71.2793 33.1986L66.5307 28.3827L56.5587 3.67509L54.1844 2L50.3855 3.67509L43.5 17.2852L40.8883 19.1697L35.6648 16.2383L30.9162 17.2852L20.9441 26.917Z" fill="url(#paint0_linear_59_414)"/>
<path d="M1 19.2004L17.13 25.485C19.8085 26.5286 22.8468 25.5142 24.6997 23.3164C28.1031 19.2794 33.845 14.0957 38.6718 17.7496C46.0631 23.3448 46.494 0.541105 55.1234 2.20751C59.4151 3.03627 60.3194 13.6557 64.1837 22.516C66.4951 27.8156 67.7595 31.0106 70.0771 32.2645C71.632 33.1058 73.425 32.0981 74.565 30.7469L87.971 14.8581C88.2791 14.4929 88.8047 14.4014 89.218 14.6409V14.6409C89.6321 14.8808 90.1586 14.7886 90.4664 14.4222L95.6153 8.29304C98.2298 5.18074 103.117 5.51411 105.285 8.95259L108.313 13.7566C109.532 15.6898 111.989 16.4295 114.073 15.4905V15.4905C115.769 14.7262 117.758 15.0631 119.108 16.343L128.871 25.6C131.023 27.6401 134.342 27.8026 136.683 25.9824L148.815 16.5476C150.001 15.6254 151.591 15.4106 152.979 15.9852V15.9852C154.631 16.6687 156.534 16.2262 157.715 14.8842L165.805 5.68877C167.128 4.18501 169.378 3.93383 171 5.10874V5.10874" stroke="url(#paint1_linear_59_414)" stroke-width="4"/>
<defs>
<linearGradient id="paint0_linear_59_414" x1="86" y1="2" x2="86" y2="60" gradientUnits="userSpaceOnUse">
<stop stop-color="#00FAFF" stop-opacity="0.12"/>
<stop offset="1" stop-color="#0A9396" stop-opacity="0"/>
</linearGradient>
<linearGradient id="paint1_linear_59_414" x1="-7.64912" y1="17.4389" x2="170.749" y2="26.8054" gradientUnits="userSpaceOnUse">
<stop stop-color="#324FFF"/>
<stop offset="1" stop-color="#CA00FF"/>
</linearGradient>
</defs>
</svg>
