<svg width="31" height="31" viewBox="0 0 31 31" fill="none" xmlns="http://www.w3.org/2000/svg">
<circle cx="15.5" cy="15.5" r="15.5" fill="#00D770"/>
<g clip-path="url(#clip0_351_98)">
<path d="M21.1707 10.4634C20.0981 8.75543 18.7171 7.29081 17.5077 6.08349C17.4334 6.00928 17.3424 5.954 17.2423 5.92227C17.1422 5.89054 17.0359 5.8833 16.9324 5.90116C16.829 5.91901 16.7313 5.96145 16.6476 6.02489C16.5639 6.08833 16.4967 6.17092 16.4516 6.26574L13.9209 11.5802L11.2732 9.81511C11.2014 9.76723 11.1209 9.73399 11.0362 9.71729C10.9515 9.70058 10.8644 9.70075 10.7798 9.71778C10.6952 9.7348 10.6147 9.76835 10.5431 9.81651C10.4715 9.86466 10.4101 9.92647 10.3624 9.9984C8.7637 12.4083 7.95312 14.5905 7.95312 16.4842C7.95313 18.4857 8.74824 20.4053 10.1636 21.8206C11.5789 23.2359 13.4984 24.031 15.5 24.031C17.5016 24.031 19.4211 23.2359 20.8364 21.8206C22.2518 20.4053 23.0469 18.4857 23.0469 16.4842C23.0469 14.4434 22.4332 12.474 21.1707 10.4634ZM20.364 17.2405C20.2073 18.2739 19.7241 19.2301 18.9851 19.9692C18.246 20.7083 17.2899 21.1915 16.2565 21.3482C16.2231 21.3533 16.1893 21.3559 16.1555 21.356C15.9902 21.3557 15.8311 21.2932 15.7099 21.1807C15.5888 21.0683 15.5145 20.9143 15.5019 20.7495C15.4894 20.5847 15.5395 20.4212 15.6422 20.2917C15.745 20.1623 15.8928 20.0763 16.0561 20.0511C16.8108 19.9295 17.5079 19.5731 18.0484 19.0326C18.5889 18.4921 18.9453 17.7949 19.0669 17.0403C19.08 16.9551 19.1098 16.8734 19.1546 16.7997C19.1993 16.726 19.2581 16.6619 19.3276 16.611C19.3972 16.5601 19.476 16.5233 19.5598 16.5029C19.6435 16.4824 19.7304 16.4787 19.8156 16.4918C19.9007 16.505 19.9825 16.5348 20.0561 16.5795C20.1298 16.6243 20.1939 16.6831 20.2448 16.7526C20.2958 16.8221 20.3325 16.901 20.3529 16.9847C20.3734 17.0684 20.3771 17.1554 20.364 17.2405H20.364Z" fill="white"/>
</g>
<defs>
<clipPath id="clip0_351_98">
<rect width="21" height="21" fill="white" transform="translate(5 5)"/>
</clipPath>
</defs>
</svg>
