<svg width="31" height="31" viewBox="0 0 31 31" fill="none" xmlns="http://www.w3.org/2000/svg">
<circle cx="15.5" cy="15.5" r="15.5" fill="#FF7900"/>
<path fill-rule="evenodd" clip-rule="evenodd" d="M15.5001 25.0832C20.793 25.0832 25.0834 20.7927 25.0834 15.4998C25.0834 10.207 20.793 5.9165 15.5001 5.9165C10.2072 5.9165 5.91675 10.207 5.91675 15.4998C5.91675 20.7927 10.2072 25.0832 15.5001 25.0832ZM16.4584 10.7082C16.4584 10.454 16.3574 10.2102 16.1777 10.0305C15.998 9.8508 15.7542 9.74984 15.5001 9.74984C15.2459 9.74984 15.0022 9.8508 14.8224 10.0305C14.6427 10.2102 14.5417 10.454 14.5417 10.7082V15.1031C14.5419 15.6114 14.7439 16.0988 15.1033 16.4582L17.6975 19.0524C17.8783 19.2269 18.1204 19.3235 18.3716 19.3214C18.6229 19.3192 18.8633 19.2184 19.0409 19.0407C19.2186 18.863 19.3194 18.6227 19.3216 18.3714C19.3238 18.1201 19.2272 17.878 19.0526 17.6973L16.4584 15.1031V10.7082Z" fill="white"/>
</svg>
