<svg width="31" height="31" viewBox="0 0 31 31" fill="none" xmlns="http://www.w3.org/2000/svg">
<circle cx="15.5" cy="15.5" r="15.5" fill="url(#paint0_linear_522_94)"/>
<path d="M15 10.493C16.1391 10.493 17.0625 9.56963 17.0625 8.43054C17.0625 7.29145 16.1391 6.36804 15 6.36804C13.8609 6.36804 12.9375 7.29145 12.9375 8.43054C12.9375 9.56963 13.8609 10.493 15 10.493Z" fill="white"/>
<path d="M22.2188 11.1875H7.78125C7.2117 11.1875 6.75 11.6492 6.75 12.2188C6.75 12.7883 7.2117 13.25 7.78125 13.25H12.0116C12.2513 13.293 12.5786 13.4149 12.7513 13.8624C12.9512 14.3804 12.8532 15.3064 12.7282 16.085L12.5659 17.0044L12.5635 17.0177L12.5633 17.0186L11.2581 24.4207C11.1592 24.9816 11.5337 25.5164 12.0946 25.6154C12.6555 25.7142 13.1831 25.3397 13.282 24.7787L14.1836 19.6243V19.6315C14.1836 19.6315 14.4521 18.2344 14.9765 18.2344H15.0235C15.5586 18.2344 15.8164 19.6315 15.8164 19.6315V19.6279L16.718 24.7804C16.8169 25.3414 17.3481 25.715 17.909 25.6161C18.4699 25.5171 18.8427 24.9818 18.7437 24.421L17.4376 17.0185C17.4375 17.0181 17.4371 17.0176 17.437 17.0173C17.4362 17.0129 17.4351 17.008 17.4343 17.0035L17.272 16.0834C17.147 15.3047 17.0489 14.3805 17.2487 13.8624C17.4215 13.4149 17.7487 13.293 17.9884 13.25H22.2188C22.7883 13.25 23.25 12.7883 23.25 12.2188C23.25 11.6492 22.7883 11.1875 22.2188 11.1875Z" fill="white"/>
<defs>
<linearGradient id="paint0_linear_522_94" x1="-1.57719" y1="15.5" x2="31.041" y2="15.8111" gradientUnits="userSpaceOnUse">
<stop stop-color="#324FFF"/>
<stop offset="1" stop-color="#CA00FF"/>
</linearGradient>
</defs>
</svg>
