<svg width="31" height="31" viewBox="0 0 31 31" fill="none" xmlns="http://www.w3.org/2000/svg">
<circle cx="15.5" cy="15.5" r="15.5" fill="#FF7900"/>
<path d="M16.6419 8.49785C16.5722 8.42555 16.4869 8.37021 16.3924 8.33607C16.298 8.30194 16.197 8.28994 16.0972 8.30098C16.8605 9.41812 17.3321 10.7086 17.4688 12.0547C17.4881 13.4682 16.9464 14.8316 15.9623 15.8464C14.9783 16.8612 13.6321 17.4446 12.2188 17.4688C11.4453 17.4677 10.6822 17.2904 9.9875 16.9504C9.75153 17.5334 9.61831 18.1528 9.59375 18.7813C9.59375 20.5218 10.2852 22.191 11.5159 23.4217C12.7466 24.6524 14.4158 25.3438 16.1562 25.3438C17.8967 25.3438 19.5659 24.6524 20.7966 23.4217C22.0273 22.191 22.7188 20.5218 22.7188 18.7813C22.7188 15.3688 17.2653 9.19348 16.6419 8.49785Z" fill="white"/>
<path d="M16.1563 12.0416C16.1563 9.96124 13.072 6.28624 12.7176 5.8728C12.656 5.80076 12.5795 5.74292 12.4934 5.70326C12.4073 5.6636 12.3136 5.64307 12.2188 5.64307C12.124 5.64307 12.0304 5.6636 11.9443 5.70326C11.8582 5.74292 11.7817 5.80076 11.7201 5.8728C11.3657 6.31249 8.28134 9.96124 8.28134 12.0416C8.26915 12.5704 8.36138 13.0965 8.55275 13.5897C8.74413 14.0828 9.0309 14.5334 9.39664 14.9156C9.76238 15.2978 10.1999 15.6041 10.6842 15.817C11.1685 16.0299 11.69 16.1452 12.2188 16.1562C12.7477 16.1452 13.2692 16.0299 13.7535 15.817C14.2378 15.6041 14.6753 15.2978 15.041 14.9156C15.4068 14.5334 15.6936 14.0828 15.8849 13.5897C16.0763 13.0965 16.1685 12.5704 16.1563 12.0416Z" fill="white"/>
</svg>
