<svg width="31" height="31" viewBox="0 0 31 31" fill="none" xmlns="http://www.w3.org/2000/svg">
<circle cx="15.5" cy="15.5" r="15.5" fill="#00D770"/>
<g clip-path="url(#clip0_351_97)">
<path d="M21.1707 10.4637C20.0981 8.75568 18.7171 7.29105 17.5077 6.08373C17.4334 6.00953 17.3424 5.95424 17.2423 5.92251C17.1422 5.89079 17.0359 5.88355 16.9324 5.9014C16.829 5.91926 16.7313 5.96169 16.6476 6.02513C16.5639 6.08857 16.4967 6.17117 16.4516 6.26598L13.9209 11.5805L11.2732 9.81535C11.2014 9.76747 11.1209 9.73423 11.0362 9.71753C10.9515 9.70083 10.8644 9.70099 10.7798 9.71802C10.6952 9.73505 10.6147 9.7686 10.5431 9.81675C10.4715 9.8649 10.4101 9.92671 10.3624 9.99864C8.7637 12.4086 7.95312 14.5907 7.95312 16.4844C7.95313 18.486 8.74824 20.4055 10.1636 21.8208C11.5789 23.2362 13.4984 24.0313 15.5 24.0313C17.5016 24.0313 19.4211 23.2362 20.8364 21.8208C22.2518 20.4055 23.0469 18.486 23.0469 16.4844C23.0469 14.4436 22.4332 12.4742 21.1707 10.4637ZM20.364 17.2408C20.2073 18.2742 19.7241 19.2303 18.9851 19.9694C18.246 20.7085 17.2899 21.1917 16.2565 21.3484C16.2231 21.3536 16.1893 21.3562 16.1555 21.3562C15.9902 21.356 15.8311 21.2934 15.7099 21.181C15.5888 21.0686 15.5145 20.9146 15.5019 20.7497C15.4894 20.5849 15.5395 20.4215 15.6422 20.292C15.745 20.1625 15.8928 20.0766 16.0561 20.0513C16.8108 19.9297 17.5079 19.5733 18.0484 19.0328C18.5889 18.4923 18.9453 17.7952 19.0669 17.0405C19.08 16.9553 19.1098 16.8736 19.1546 16.7999C19.1993 16.7263 19.2581 16.6622 19.3276 16.6112C19.3972 16.5603 19.476 16.5236 19.5598 16.5031C19.6435 16.4827 19.7304 16.4789 19.8156 16.4921C19.9007 16.5052 19.9825 16.535 20.0561 16.5798C20.1298 16.6245 20.1939 16.6833 20.2448 16.7529C20.2958 16.8224 20.3325 16.9012 20.3529 16.985C20.3734 17.0687 20.3771 17.1556 20.364 17.2408H20.364Z" fill="white"/>
</g>
<defs>
<clipPath id="clip0_351_97">
<rect width="21" height="21" fill="white" transform="translate(5 5)"/>
</clipPath>
</defs>
</svg>
