<svg width="23" height="23" viewBox="0 0 23 23" fill="none" xmlns="http://www.w3.org/2000/svg">
<path fill-rule="evenodd" clip-rule="evenodd" d="M11.5003 9.82288C10.5741 9.82288 9.82324 10.5737 9.82324 11.5C9.82324 12.4262 10.5741 13.177 11.5003 13.177C12.4266 13.177 13.1774 12.4262 13.1774 11.5C13.1774 10.5737 12.4266 9.82288 11.5003 9.82288ZM8.38574 11.5C8.38574 9.77985 9.78021 8.38538 11.5003 8.38538C13.2204 8.38538 14.6149 9.77985 14.6149 11.5C14.6149 13.2201 13.2204 14.6145 11.5003 14.6145C9.78021 14.6145 8.38574 13.2201 8.38574 11.5Z" fill="#F4F6FF"/>
<path fill-rule="evenodd" clip-rule="evenodd" d="M8.27433 7.1513C8.55893 7.42801 8.56533 7.88305 8.28862 8.16766C6.50145 10.0058 6.50145 12.9941 8.28862 14.8323C8.56533 15.1169 8.55893 15.5719 8.27433 15.8486C7.98971 16.1254 7.53468 16.1189 7.25796 15.8343C4.92834 13.4383 4.92834 9.56164 7.25796 7.16559C7.53468 6.88098 7.98971 6.87458 8.27433 7.1513ZM14.7264 7.1513C15.0109 6.87458 15.466 6.88098 15.7427 7.16559C18.0723 9.56164 18.0723 13.4383 15.7427 15.8343C15.466 16.1189 15.0109 16.1254 14.7264 15.8486C14.4417 15.5719 14.4353 15.1169 14.7121 14.8323C16.4992 12.9941 16.4992 10.0058 14.7121 8.16766C14.4353 7.88305 14.4417 7.42801 14.7264 7.1513Z" fill="#F4F6FF"/>
<path fill-rule="evenodd" clip-rule="evenodd" d="M6.24902 5.24221C6.52947 5.52314 6.52908 5.97823 6.24814 6.25867C3.34827 9.15352 3.34827 13.8465 6.24814 16.7413C6.52908 17.0217 6.52947 17.4768 6.24902 17.7578C5.96858 18.0387 5.51349 18.0391 5.23256 17.7587C1.77014 14.3023 1.77014 8.69776 5.23256 5.24133C5.51349 4.96088 5.96858 4.96127 6.24902 5.24221ZM16.7516 5.24221C17.0321 4.96127 17.4871 4.96088 17.7681 5.24133C19.4978 6.96808 20.3638 9.23259 20.3649 11.4954C20.3651 11.8923 20.0435 12.2142 19.6465 12.2145C19.2496 12.2147 18.9276 11.8931 18.9274 11.4961C18.9265 9.59953 18.2018 7.70539 16.7525 6.25867C16.4716 5.97823 16.4712 5.52314 16.7516 5.24221ZM19.0271 14.6976C19.3771 14.8849 19.5088 15.3206 19.3215 15.6705C18.9193 16.4218 18.4012 17.1267 17.7681 17.7587C17.4871 18.0391 17.0321 18.0387 16.7516 17.7578C16.4712 17.4768 16.4716 17.0217 16.7525 16.7413C17.2844 16.2103 17.718 15.6199 18.0542 14.9921C18.2415 14.6421 18.6771 14.5102 19.0271 14.6976Z" fill="#F4F6FF"/>
</svg>
