<svg width="17" height="17" viewBox="0 0 17 17" fill="none" xmlns="http://www.w3.org/2000/svg">
<g clip-path="url(#clip0_164_76)">
<path fill-rule="evenodd" clip-rule="evenodd" d="M8.50231 0.706909C4.20703 0.706909 0.705078 4.20391 0.705078 8.49848C0.705078 12.793 4.20774 16.2943 8.50231 16.2943C12.7969 16.2943 16.2925 12.793 16.2925 8.49848C16.2925 4.20391 12.7969 0.706909 8.50231 0.706909ZM8.50231 2.12356C9.33981 2.12216 10.1693 2.28611 10.9433 2.606C11.7173 2.92589 12.4206 3.39543 13.0127 3.98769C13.6048 4.57996 14.0742 5.28329 14.3939 6.05735C14.7136 6.83142 14.8774 7.66099 14.8758 8.49848C14.8775 9.3362 14.7138 10.166 14.3942 10.9404C14.0746 11.7147 13.6052 12.4184 13.0131 13.011C12.4211 13.6036 11.7178 14.0735 10.9438 14.3939C10.1697 14.7142 9.34003 14.8786 8.50231 14.8776C7.66423 14.8787 6.83418 14.7144 6.05968 14.3942C5.28519 14.074 4.58145 13.6042 3.98877 13.0116C3.3961 12.4191 2.92611 11.7154 2.60574 10.941C2.28536 10.1666 2.12089 9.33656 2.12173 8.49848C2.12173 4.96961 4.97344 2.12356 8.50231 2.12356ZM8.49098 3.53029C8.39736 3.53121 8.30484 3.55068 8.21879 3.58758C8.13274 3.62447 8.05485 3.67806 7.98964 3.74525C7.92443 3.81244 7.87319 3.89189 7.83888 3.979C7.80456 4.06612 7.78786 4.15917 7.78974 4.25278V8.49848C7.79013 8.59169 7.80892 8.6839 7.84502 8.76984C7.88112 8.85577 7.93382 8.93374 8.00011 8.99926L10.8334 11.834C10.8989 11.9014 10.9773 11.9551 11.0638 11.992C11.1503 12.0289 11.2433 12.0481 11.3373 12.0487C11.4314 12.0492 11.5246 12.031 11.6115 11.9951C11.6984 11.9593 11.7774 11.9065 11.8437 11.8398C11.91 11.7731 11.9623 11.6939 11.9977 11.6067C12.0331 11.5196 12.0507 11.4263 12.0497 11.3323C12.0486 11.2382 12.0288 11.1453 11.9915 11.059C11.9541 10.9727 11.9 10.8947 11.8321 10.8296L9.2078 8.20523V4.25278C9.20971 4.15786 9.19251 4.06352 9.15724 3.97537C9.12196 3.88723 9.06932 3.80708 9.00245 3.73968C8.93558 3.67228 8.85585 3.61901 8.76798 3.58304C8.68012 3.54707 8.58592 3.52913 8.49098 3.53029Z" fill="#F4F6FF"/>
</g>
<defs>
<clipPath id="clip0_164_76">
<rect width="17" height="17" fill="white"/>
</clipPath>
</defs>
</svg>
