<svg width="16" height="16" viewBox="0 0 16 16" fill="none" xmlns="http://www.w3.org/2000/svg">
<path fill-rule="evenodd" clip-rule="evenodd" d="M7.99967 14.6668C11.6817 14.6668 14.6663 11.6822 14.6663 8.00016C14.6663 4.31816 11.6817 1.3335 7.99967 1.3335C4.31767 1.3335 1.33301 4.31816 1.33301 8.00016C1.33301 11.6822 4.31767 14.6668 7.99967 14.6668ZM8.66634 4.66683C8.66634 4.49002 8.5961 4.32045 8.47108 4.19543C8.34606 4.0704 8.17649 4.00016 7.99967 4.00016C7.82286 4.00016 7.65329 4.0704 7.52827 4.19543C7.40325 4.32045 7.33301 4.49002 7.33301 4.66683V7.72416C7.33308 8.07776 7.47361 8.41684 7.72367 8.66683L9.52834 10.4715C9.65408 10.5929 9.82248 10.6601 9.99728 10.6586C10.1721 10.6571 10.3393 10.587 10.4629 10.4634C10.5865 10.3398 10.6566 10.1726 10.6581 9.99776C10.6596 9.82297 10.5924 9.65456 10.471 9.52883L8.66634 7.72416V4.66683Z" fill="#B3B3B3"/>
</svg>
