<svg width="21" height="21" viewBox="0 0 21 21" fill="none" xmlns="http://www.w3.org/2000/svg">
<path d="M7.5 3H13.5V1.5H7.5V3ZM21 10.5V16.125C21 16.6406 20.8164 17.082 20.4492 17.4492C20.082 17.8164 19.6406 18 19.125 18H1.875C1.35938 18 0.917969 17.8164 0.550781 17.4492C0.183594 17.082 0 16.6406 0 16.125V10.5H7.875V12.375C7.875 12.5781 7.94922 12.7539 8.09766 12.9023C8.24609 13.0508 8.42188 13.125 8.625 13.125H12.375C12.5781 13.125 12.7539 13.0508 12.9023 12.9023C13.0508 12.7539 13.125 12.5781 13.125 12.375V10.5H21ZM12 10.5V12H9V10.5H12ZM21 4.875V9.375H0V4.875C0 4.35938 0.183594 3.91797 0.550781 3.55078C0.917969 3.18359 1.35938 3 1.875 3H6V1.125C6 0.8125 6.10938 0.546875 6.32812 0.328125C6.54688 0.109375 6.8125 0 7.125 0H13.875C14.1875 0 14.4531 0.109375 14.6719 0.328125C14.8906 0.546875 15 0.8125 15 1.125V3H19.125C19.6406 3 20.082 3.18359 20.4492 3.55078C20.8164 3.91797 21 4.35938 21 4.875Z" fill="black" fill-opacity="0.5"/>
</svg>
