<svg width="24" height="24" viewBox="0 0 24 24" fill="none" xmlns="http://www.w3.org/2000/svg">
<g clip-path="url(#clip0_128_15)">
<path fill-rule="evenodd" clip-rule="evenodd" d="M15.5464 5.31095C15.902 5.31308 16.2545 5.24584 16.5834 5.11313C16.9123 4.98042 17.2112 4.78488 17.4626 4.53785C17.7141 4.29081 17.9132 3.99719 18.0483 3.67399C18.1834 3.3508 18.252 3.00446 18.2499 2.65506C18.2379 1.95857 17.9479 1.2946 17.4424 0.80623C16.937 0.317861 16.2565 0.0441895 15.5476 0.0441895C14.8388 0.0441895 14.1583 0.317861 13.6528 0.80623C13.1473 1.2946 12.8573 1.95857 12.8453 2.65506C12.8432 3.0043 12.9115 3.35049 13.0465 3.67358C13.1815 3.99667 13.3803 4.29023 13.6315 4.53726C13.8828 4.78428 14.1814 4.97987 14.5101 5.11268C14.8388 5.24548 15.1911 5.31288 15.5464 5.31095ZM20.4406 5.7125C18.859 7.86684 16.7684 8.11724 14.5241 6.81486C14.2126 6.61243 13.8891 6.42838 13.5554 6.26368C9.93444 4.15897 6.31429 4.96055 3.91691 8.31801C2.89768 9.72116 5.29428 11.0739 6.26379 9.67153C7.53784 7.9157 9.11874 7.41567 10.8535 7.96761C9.98649 9.52114 9.17001 11.0212 8.09873 13.129C6.97617 15.2841 4.58035 16.988 2.23347 15.6849C2.07612 15.5819 1.89944 15.5107 1.71376 15.4756C1.52808 15.4405 1.33714 15.4421 1.15212 15.4804C0.96709 15.5187 0.791696 15.5929 0.636201 15.6986C0.480707 15.8043 0.348236 15.9394 0.246544 16.0961C0.144852 16.2527 0.0759822 16.4278 0.0439655 16.6109C0.0119489 16.794 0.0174291 16.9816 0.0600853 17.1626C0.102742 17.3436 0.181717 17.5145 0.292388 17.6651C0.403058 17.8158 0.543201 17.9432 0.704612 18.04C2.13542 18.8417 3.81028 19.1156 5.42818 18.8125C7.04608 18.5094 8.50093 17.6492 9.53125 16.3865C9.58253 16.3865 9.68662 16.4361 9.73479 16.4361C11.2555 17.0575 12.6805 17.8844 13.9687 18.8927C14.58 19.3928 15.6505 21.9464 16.2627 23.2518C17.0792 24.8053 19.5255 23.7022 18.7619 22.099C18.0471 20.6486 16.8236 17.7392 15.9061 16.988C14.8 16.1492 13.6415 15.3792 12.4375 14.6825C13.3052 13.0794 14.1722 11.5259 15.0897 9.97232C17.9967 10.8235 20.8019 9.81964 22.7906 7.06526C23.8099 5.66288 21.4653 4.30936 20.4453 5.7125H20.4406Z" fill="black" fill-opacity="0.5"/>
</g>
<defs>
<clipPath id="clip0_128_15">
<rect width="23.04" height="24" fill="white"/>
</clipPath>
</defs>
</svg>
