<svg width="136" height="40" viewBox="0 0 136 40" fill="none" xmlns="http://www.w3.org/2000/svg">
<path d="M59.133 13.22C59.2207 12.555 59.4407 11.9144 59.78 11.336C60.1179 10.7601 60.569 10.2587 61.106 9.86195C62.389 9.01703 63.9092 8.60621 65.443 8.68995L65.016 11.26C64.5441 11.7254 64.1003 12.2186 63.687 12.737L63.946 12.915C64.9233 11.652 66.1057 10.5621 67.444 9.69095C68.5302 9.03339 69.7764 8.68743 71.046 8.69095C72.0477 8.65478 73.0248 9.00533 73.775 9.66995C74.5413 10.4046 75.0534 11.3644 75.237 12.41C76.0719 11.2655 77.1585 10.328 78.413 9.66995C79.6743 9.02382 81.074 8.69498 82.491 8.71195C83.2249 8.6751 83.9579 8.80005 84.638 9.07795C85.3211 9.35731 85.935 9.78217 86.437 10.323C86.9462 10.9021 87.3369 11.5755 87.587 12.305C87.8372 13.037 87.9431 13.8106 87.899 14.583C87.9025 15.2115 87.8463 15.839 87.731 16.457L85.751 27.817C85.6692 28.374 85.4594 28.9046 85.138 29.367C84.818 29.828 84.395 30.207 83.904 30.472C82.4778 31.1122 80.9175 31.397 79.357 31.302L81.847 16.968C81.903 16.495 81.931 16.19 81.931 16.053C81.931 14.51 81.201 13.738 79.741 13.738C79.251 13.731 78.765 13.828 78.315 14.024C77.8631 14.2205 77.4576 14.5101 77.125 14.874C76.355 15.7563 75.8677 16.8495 75.726 18.012L74.013 27.817C73.9297 28.3737 73.7193 28.9037 73.398 29.366C73.0789 29.8253 72.6571 30.204 72.166 30.472C70.7697 31.1127 69.2364 31.3979 67.703 31.302L70.193 16.968C70.249 16.495 70.277 16.19 70.277 16.053C70.3216 15.4334 70.1204 14.8213 69.717 14.349C69.5141 14.1359 69.2664 13.9706 68.9917 13.8651C68.7171 13.7596 68.4224 13.7165 68.129 13.739C67.6271 13.729 67.129 13.8293 66.67 14.033C66.2091 14.2373 65.7977 14.5389 65.464 14.917C64.6981 15.8702 64.2133 17.0183 64.064 18.232L62.3931 27.817C62.3209 28.3772 62.1151 28.9119 61.793 29.376C61.4725 29.8371 61.0445 30.2132 60.5461 30.472C59.117 31.1112 57.5547 31.396 55.9921 31.302L59.133 13.22ZM47.773 12.205C47.863 11.648 48.0811 11.121 48.409 10.666C48.7358 10.2124 49.1647 9.84205 49.661 9.58495C51.0991 8.9245 52.6773 8.62713 54.257 8.71895L50.9771 27.803C50.9013 28.3677 50.6892 28.9055 50.3591 29.37C50.0311 29.8318 49.5942 30.2055 49.0871 30.458C47.642 31.0935 46.0671 31.378 44.4911 31.288L47.772 12.205H47.773ZM51.641 7.05695C50.7833 7.09911 49.9404 6.82113 49.2761 6.27695C48.9833 6.01478 48.7513 5.69195 48.5961 5.33095C48.44 4.9681 48.3643 4.57581 48.3741 4.18095C48.373 3.61779 48.4937 3.06105 48.7281 2.54895C48.9616 2.03846 49.3039 1.5852 49.731 1.22095C50.5902 0.415799 51.7298 -0.0219681 52.9071 0.000953406C53.7575 -0.0333534 54.588 0.264272 55.223 0.830953C55.5174 1.08214 55.7513 1.39644 55.9075 1.75049C56.0637 2.10453 56.138 2.48922 56.125 2.87595C56.1271 3.44073 56.0067 3.99923 55.772 4.51295C55.5385 5.02427 55.1958 5.47823 54.7681 5.84295C53.9318 6.63894 52.8165 7.07486 51.662 7.05695H51.641ZM34.85 31.29C33.1688 31.3637 31.5267 30.7687 30.2831 29.635C29.7079 29.0534 29.2592 28.3592 28.965 27.596C28.6701 26.8298 28.5353 26.0113 28.569 25.191C28.5699 24.6798 28.6117 24.1695 28.694 23.665L32.1921 3.48695C32.2754 2.93024 32.4858 2.40021 32.807 1.93795C33.1264 1.4781 33.5486 1.09906 34.0401 0.830953C35.4991 0.192709 37.0882 -0.0920152 38.6781 -4.65922e-05L34.6 23.428C34.5544 23.7173 34.5264 24.0092 34.516 24.302C34.4887 24.5618 34.5204 24.8244 34.6087 25.0703C34.697 25.3161 34.8397 25.5389 35.0261 25.722C35.5506 26.0557 36.1692 26.2101 36.7891 26.162C37.9643 26.1423 39.1178 25.8427 40.154 25.288C40.3877 25.5307 40.57 25.8181 40.6903 26.1328C40.8106 26.4475 40.8662 26.7832 40.854 27.12C40.8379 27.7201 40.6715 28.3067 40.37 28.826C40.069 29.344 39.643 29.776 39.133 30.081C37.8776 30.9262 36.3853 31.349 34.8731 31.288H34.8521L34.85 31.29ZM12.171 31.29C8.44105 31.29 5.46205 30.693 3.23805 29.5C1.01305 28.308 -0.0659511 26.668 -0.00195107 24.58C-0.00195107 21.386 1.98805 19.786 5.96605 19.781C5.93305 20.131 5.91905 20.481 5.92405 20.831C5.87794 21.5952 6.00902 22.3597 6.30705 23.065C6.60321 23.7668 7.05894 24.39 7.63805 24.885C8.78505 25.78 10.436 26.235 12.618 26.235C14.3169 26.3222 16.0044 25.9125 17.4741 25.056C18.0266 24.7232 18.4823 24.2515 18.796 23.688C19.111 23.122 19.276 22.483 19.272 21.833C19.2907 21.2763 19.0924 20.7342 18.719 20.321C18.1749 19.7824 17.5107 19.3807 16.781 19.149C15.5551 18.6573 14.2921 18.2634 13.004 17.971C9.59905 17.147 7.09405 16.082 5.49005 14.776C4.74224 14.1778 4.14181 13.4159 3.73505 12.549C3.32579 11.6779 3.11994 10.7252 3.13305 9.76295C3.09201 7.91575 3.63323 6.10246 4.68005 4.57995C5.81488 3.02155 7.38088 1.82924 9.18505 1.14995C11.4083 0.323144 13.7676 -0.0765207 16.139 -0.0280466C18.0569 -0.0567967 19.9678 0.208964 21.805 0.759953C23.2623 1.15968 24.5936 1.92445 25.673 2.98195C26.112 3.38395 26.463 3.87495 26.703 4.42195C26.9441 4.97054 27.07 5.56275 27.073 6.16195C27.073 9.00195 25.156 10.498 21.323 10.65C21.3581 10.3244 21.3765 9.99735 21.378 9.66995C21.378 8.07495 20.9121 6.91295 19.979 6.18395C19.046 5.45495 17.624 5.07895 15.712 5.05495C14.0958 4.95649 12.4854 5.32627 11.074 6.11995C10.5535 6.41319 10.1233 6.84343 9.83005 7.36395C9.53476 7.88678 9.38619 8.47966 9.40005 9.07995C9.40642 9.50748 9.52483 9.92586 9.74348 10.2933C9.96212 10.6608 10.2733 10.9644 10.646 11.174C12.052 11.902 13.556 12.414 15.109 12.694C18.696 13.56 21.3291 14.681 23.007 16.059C23.8036 16.6527 24.4477 17.4274 24.886 18.319C25.326 19.212 25.5501 20.199 25.5401 21.199C25.5827 23.1271 25.012 25.0191 23.91 26.602C22.7425 28.1971 21.1281 29.4103 19.271 30.088C17.0111 30.9418 14.6071 31.3493 12.192 31.288H12.172L12.171 31.29Z" fill="#FF8A00"/>
<path d="M113.243 40C112.807 40.0288 112.37 39.9619 111.963 39.804C111.554 39.6453 111.184 39.3996 110.879 39.084C110.322 38.3314 110.049 37.4056 110.109 36.471C110.116 35.961 110.158 35.451 110.235 34.945C110.967 35.1163 111.716 35.2046 112.467 35.208C113.419 35.2458 114.351 34.9354 115.09 34.335C116.12 33.398 116.99 32.295 117.665 31.069L118.567 29.585L113.845 9.195C114.189 9.03929 114.554 8.93614 114.929 8.889C115.388 8.78286 115.857 8.72588 116.328 8.719C117.173 8.68251 118.01 8.8946 118.735 9.329C119.037 9.484 119.301 9.705 119.508 9.977C119.715 10.248 119.859 10.563 119.931 10.898L122.163 22.258L121.092 24.388L121.435 24.523L129.081 10.884C129.473 10.1938 130.073 9.64477 130.795 9.315C131.606 8.90383 132.503 8.69456 133.412 8.705C133.918 8.70971 134.422 8.76668 134.916 8.875C135.291 8.905 135.657 9.008 135.993 9.18L122.345 32.815C121.239 34.9008 119.754 36.762 117.965 38.303C116.64 39.4069 114.968 40.0078 113.243 40ZM94.5161 3.316C94.667 2.49235 95.128 1.75793 95.8041 1.264C96.4787 0.700248 97.331 0.393465 98.2101 0.397999H117.728C117.55 1.91621 116.971 3.3595 116.049 4.579C115.637 5.01584 115.136 5.35893 114.579 5.585C114.025 5.81003 113.429 5.91238 112.831 5.885H100.4L99.2381 12.553H110.487C110.314 14.0821 109.737 15.5375 108.815 16.77C108.395 17.2046 107.885 17.543 107.321 17.762C106.759 17.9797 106.156 18.0722 105.555 18.033H98.2941L96.7411 26.887C96.6559 27.5693 96.4239 28.225 96.0611 28.809C95.6998 29.3903 95.2154 29.8852 94.6421 30.259C93.5511 30.959 91.8911 31.31 89.6621 31.31L94.5161 3.316Z" fill="#D100FF"/>
</svg>
