<svg width="17" height="17" viewBox="0 0 17 17" fill="none" xmlns="http://www.w3.org/2000/svg">
<g clip-path="url(#clip0_59_327)">
<path d="M8.5 17C13.1944 17 17 13.1944 17 8.5C17 3.80558 13.1944 0 8.5 0C3.80558 0 0 3.80558 0 8.5C0 13.1944 3.80558 17 8.5 17Z" fill="#F0F0F0"/>
<path d="M16.4713 11.4565C16.813 10.5356 17 9.53969 17 8.49996C17 7.46024 16.813 6.46428 16.4713 5.54346H0.528693C0.187033 6.46428 0 7.46024 0 8.49996C0 9.53969 0.187033 10.5356 0.528693 11.4565L8.5 12.1956L16.4713 11.4565Z" fill="#0052B4"/>
<path d="M8.50011 17C12.1548 17 15.2704 14.6933 16.4714 11.4565H0.528809C1.7298 14.6933 4.84541 17 8.50011 17Z" fill="#D80027"/>
</g>
<defs>
<clipPath id="clip0_59_327">
<rect width="17" height="17" fill="white"/>
</clipPath>
</defs>
</svg>
