<svg width="31" height="31" viewBox="0 0 31 31" fill="none" xmlns="http://www.w3.org/2000/svg">
<circle cx="15.5" cy="15.5" r="15.5" fill="url(#paint0_linear_108_165)"/>
<path fill-rule="evenodd" clip-rule="evenodd" d="M15.5001 13.823C14.5739 13.823 13.823 14.5739 13.823 15.5001C13.823 16.4263 14.5739 17.1772 15.5001 17.1772C16.4263 17.1772 17.1772 16.4263 17.1772 15.5001C17.1772 14.5739 16.4263 13.823 15.5001 13.823ZM12.3855 15.5001C12.3855 13.78 13.78 12.3855 15.5001 12.3855C17.2202 12.3855 18.6147 13.78 18.6147 15.5001C18.6147 17.2202 17.2202 18.6147 15.5001 18.6147C13.78 18.6147 12.3855 17.2202 12.3855 15.5001Z" fill="#F4F6FF"/>
<path fill-rule="evenodd" clip-rule="evenodd" d="M12.2741 11.1514C12.5587 11.4281 12.5651 11.8832 12.2884 12.1678C10.5012 14.0059 10.5012 16.9942 12.2884 18.8324C12.5651 19.117 12.5587 19.572 12.2741 19.8487C11.9895 20.1255 11.5344 20.1191 11.2577 19.8344C8.92809 17.4384 8.92809 13.5618 11.2577 11.1657C11.5344 10.8811 11.9895 10.8747 12.2741 11.1514ZM18.7261 11.1514C19.0107 10.8747 19.4658 10.8811 19.7424 11.1657C22.072 13.5618 22.072 17.4384 19.7424 19.8344C19.4658 20.1191 19.0107 20.1255 18.7261 19.8487C18.4415 19.572 18.4351 19.117 18.7118 18.8324C20.4989 16.9942 20.4989 14.0059 18.7118 12.1678C18.4351 11.8832 18.4415 11.4281 18.7261 11.1514Z" fill="#F4F6FF"/>
<path fill-rule="evenodd" clip-rule="evenodd" d="M10.2488 9.24221C10.5292 9.52314 10.5288 9.97823 10.2479 10.2587C7.34803 13.1535 7.34803 17.8465 10.2479 20.7413C10.5288 21.0217 10.5292 21.4768 10.2488 21.7578C9.96833 22.0387 9.51325 22.0391 9.23231 21.7587C5.76989 18.3023 5.76989 12.6978 9.23231 9.24133C9.51325 8.96088 9.96833 8.96127 10.2488 9.24221ZM20.7514 9.24221C21.0319 8.96127 21.4869 8.96088 21.7679 9.24133C23.4976 10.9681 24.3635 13.2326 24.3647 15.4954C24.3649 15.8923 24.0432 16.2142 23.6463 16.2145C23.2494 16.2147 22.9274 15.8931 22.9272 15.4961C22.9262 13.5995 22.2015 11.7054 20.7522 10.2587C20.4713 9.97823 20.471 9.52314 20.7514 9.24221ZM23.0268 18.6976C23.3768 18.8849 23.5086 19.3206 23.3212 19.6705C22.919 20.4218 22.4009 21.1267 21.7679 21.7587C21.4869 22.0391 21.0319 22.0387 20.7514 21.7578C20.471 21.4768 20.4713 21.0217 20.7522 20.7413C21.2842 20.2103 21.7177 19.6199 22.0539 18.9921C22.2413 18.6421 22.6768 18.5102 23.0268 18.6976Z" fill="#F4F6FF"/>
<defs>
<linearGradient id="paint0_linear_108_165" x1="-1.57719" y1="15.5" x2="31.041" y2="15.8111" gradientUnits="userSpaceOnUse">
<stop stop-color="#324FFF"/>
<stop offset="1" stop-color="#CA00FF"/>
</linearGradient>
</defs>
</svg>
