<svg width="31" height="31" viewBox="0 0 31 31" fill="none" xmlns="http://www.w3.org/2000/svg">
<circle cx="15.5" cy="15.5" r="15.5" fill="#FF7900"/>
<g clip-path="url(#clip0_122_968)">
<path d="M23.713 18.2409L25.0834 16.8705L23.713 15.5001L20.2917 18.9213L12.0788 10.7084L15.5001 7.28716L14.1297 5.91675L12.7592 7.28716L11.3888 5.91675L9.338 7.96758L7.96758 6.59716L6.59716 7.96758L7.96758 9.338L5.91675 11.3888L7.28716 12.7592L5.91675 14.1297L7.28716 15.5001L10.7084 12.0788L18.9213 20.2917L15.5001 23.713L16.8705 25.0834L18.2409 23.713L19.6113 25.0834L21.6622 23.0326L23.0326 24.403L24.403 23.0326L23.0326 21.6622L25.0834 19.6113L23.713 18.2409Z" fill="#F4F6FF"/>
</g>
<defs>
<clipPath id="clip0_122_968">
<rect width="23" height="23" fill="white" transform="translate(4 4)"/>
</clipPath>
</defs>
</svg>
