<svg width="31" height="31" viewBox="0 0 31 31" fill="none" xmlns="http://www.w3.org/2000/svg">
<circle cx="15.5" cy="15.5" r="15.5" fill="#FF3232"/>
<path d="M10.5371 14.9372H7.99139C7.51997 14.9372 7.14282 15.3143 7.14282 15.7858V20.9401C7.14282 21.4115 7.51997 21.7886 7.99139 21.7886H10.5371C11.0085 21.7886 11.3857 21.4115 11.3857 20.9401V15.7858C11.3857 15.3143 11.0085 14.9372 10.5371 14.9372ZM16.2885 12.9572H13.7428C13.2714 12.9572 12.8943 13.3343 12.8943 13.8058V20.9401C12.8943 21.4115 13.2714 21.7886 13.7428 21.7886H16.2885C16.76 21.7886 17.1371 21.4115 17.1371 20.9401V13.8058C17.1057 13.3343 16.7285 12.9572 16.2885 12.9572ZM22.0085 8.24292H19.4628C18.9914 8.24292 18.6143 8.62006 18.6143 9.09149V20.9401C18.6143 21.4115 18.9914 21.7886 19.4628 21.7886H22.0085C22.48 21.7886 22.8571 21.4115 22.8571 20.9401V9.06006C22.8571 8.62006 22.48 8.24292 22.0085 8.24292Z" fill="#F4F6FF"/>
</svg>
