<svg width="31" height="31" viewBox="0 0 31 31" fill="none" xmlns="http://www.w3.org/2000/svg">
<circle cx="15.5" cy="15.5" r="15.5" fill="#BD32FF"/>
<g clip-path="url(#clip0_122_970)">
<path d="M7.75 21.75H10.75V12.75H7.75V21.75ZM24.25 13.5C24.25 12.6713 23.5787 12 22.75 12H18.0138L18.73 8.5725C18.745 8.4975 18.7563 8.41875 18.7563 8.33625C18.7563 8.025 18.6287 7.74375 18.4262 7.54125L17.6275 6.75L12.6888 11.6888C12.4187 11.9625 12.25 12.3375 12.25 12.75V20.25C12.25 21.0788 12.9212 21.75 13.75 21.75H20.5C21.1225 21.75 21.655 21.3713 21.88 20.835L24.1413 15.5475C24.2114 15.3734 24.2483 15.1877 24.25 15V13.5638L24.2425 13.5563L24.25 13.5Z" fill="#F4F6FF"/>
</g>
<defs>
<clipPath id="clip0_122_970">
<rect width="18" height="18" fill="white" transform="translate(7 6)"/>
</clipPath>
</defs>
</svg>
